<svg width="16" height="16" viewBox="0 0 16 16" fill="none" xmlns="http://www.w3.org/2000/svg">
<path fill-rule="evenodd" clip-rule="evenodd" d="M13.3998 0.800003C13.8771 0.800003 14.3349 0.989571 14.6724 1.32702C15.0099 1.66457 15.1994 2.12232 15.1994 2.59962C15.1994 3.07691 15.0099 3.53467 14.6724 3.87222L7.845 10.6996H5.2998V8.15442L12.1272 1.32702C12.4648 0.989571 12.9225 0.800003 13.3998 0.800003ZM1.32701 3.12721C0.989447 3.46478 0.799805 3.92261 0.799805 4.4V13.4C0.799805 13.8774 0.989447 14.3352 1.32701 14.6728C1.66458 15.0104 2.12242 15.2 2.5998 15.2H11.5998C12.0772 15.2 12.535 15.0104 12.8726 14.6728C13.2102 14.3352 13.3998 13.8774 13.3998 13.4V9.8C13.3998 9.56131 13.305 9.33239 13.1362 9.16361C12.9674 8.99482 12.7385 8.9 12.4998 8.9C12.2611 8.9 12.0322 8.99482 11.8634 9.16361C11.6946 9.33239 11.5998 9.56131 11.5998 9.8V13.4H2.5998V4.4H6.1998C6.4385 4.4 6.66742 4.30518 6.8362 4.1364C7.00498 3.96762 7.0998 3.7387 7.0998 3.5C7.0998 3.26131 7.00498 3.03239 6.8362 2.86361C6.66742 2.69482 6.4385 2.6 6.1998 2.6H2.5998C2.12242 2.6 1.66458 2.78965 1.32701 3.12721Z" fill="#5048E5"/>
</svg>
