<svg width="42" height="34" viewBox="0 0 42 34" fill="none" xmlns="http://www.w3.org/2000/svg">
<path d="M22.6744 0.502469L31.9038 5.66459C32.117 5.78381 32.2944 5.95738 32.4178 6.16738C32.5413 6.37746 32.6064 6.61638 32.6064 6.85973C32.6064 7.10309 32.5413 7.34201 32.4178 7.55209C32.2944 7.76209 32.117 7.93566 31.9038 8.05488L22.6745 13.2172C22.0854 13.5467 21.4212 13.7198 20.7456 13.7198C20.0698 13.7198 19.4056 13.5467 18.8166 13.2172L9.5873 8.05488C9.37415 7.93566 9.1967 7.76209 9.0732 7.55209C8.94971 7.34201 8.8846 7.10309 8.8846 6.85973C8.8846 6.61638 8.94971 6.37746 9.0732 6.16738C9.1967 5.95738 9.37415 5.78381 9.5873 5.66459L18.8166 0.502469C19.4056 0.173011 20.0698 2.86102e-06 20.7456 2.86102e-06C21.4212 2.86102e-06 22.0854 0.173011 22.6744 0.502469Z" fill="#D1D5DB"/>
<path opacity="0.7" d="M22.6244 5.34853L35.8422 12.7415C36.0554 12.8607 36.2328 13.0343 36.3563 13.2443C36.4798 13.4544 36.5449 13.6933 36.5449 13.9366C36.5449 14.18 36.4798 14.419 36.3563 14.629C36.2328 14.8391 36.0554 15.0126 35.8422 15.1319L22.6244 22.5248C22.0355 22.8541 21.3712 23.0272 20.6956 23.0272C20.0199 23.0272 19.3557 22.8541 18.7667 22.5248L5.54893 15.1319C5.33578 15.0126 5.15833 14.8391 5.03483 14.629C4.91133 14.419 4.84623 14.18 4.84623 13.9366C4.84623 13.6933 4.91133 13.4544 5.03483 13.2443C5.15833 13.0343 5.33578 12.8607 5.54893 12.7415L18.7667 5.34853C19.3557 5.01916 20.0199 4.84615 20.6956 4.84615C21.3712 4.84615 22.0355 5.01916 22.6244 5.34853Z" fill="#D1D5DB"/>
<path opacity="0.4" d="M22.9257 10.1939L41.2984 20.4703C41.5113 20.5894 41.6884 20.7626 41.8117 20.9724C41.935 21.182 42 21.4206 42 21.6636C42 21.9065 41.935 22.1451 41.8117 22.3548C41.6884 22.5645 41.5113 22.7378 41.2984 22.8568L22.9257 33.1329C22.3377 33.4618 21.6745 33.6346 21 33.6346C20.3254 33.6346 19.6623 33.4618 19.0743 33.1329L0.701543 22.8568C0.488742 22.7378 0.311581 22.5645 0.188287 22.3548C0.0649931 22.1451 9.53674e-07 21.9065 9.53674e-07 21.6636C9.53674e-07 21.4206 0.0649931 21.182 0.188287 20.9724C0.311581 20.7626 0.488742 20.5894 0.701543 20.4703L19.0743 10.1939C19.6623 9.8651 20.3254 9.6923 21 9.6923C21.6745 9.6923 22.3377 9.8651 22.9257 10.1939Z" fill="#D1D5DB"/>
</svg>
