<svg width="20" height="20" viewBox="0 0 20 20" fill="none" xmlns="http://www.w3.org/2000/svg">
<path fill-rule="evenodd" clip-rule="evenodd" d="M11.7881 1.804C11.3321 -0.0680004 8.66809 -0.0680004 8.21209 1.804C8.14401 2.0853 8.01048 2.34655 7.82236 2.56649C7.63424 2.78644 7.39685 2.95886 7.1295 3.06972C6.86216 3.18059 6.57242 3.22677 6.28386 3.20451C5.99529 3.18224 5.71606 3.09216 5.46889 2.9416C3.82249 1.9384 1.93849 3.8224 2.94169 5.4688C3.58969 6.532 3.01489 7.9192 1.80529 8.2132C-0.0679094 8.668 -0.0679094 11.3332 1.80529 11.7868C2.08666 11.855 2.34796 11.9886 2.5679 12.1769C2.78785 12.3651 2.96022 12.6027 3.07098 12.8702C3.18174 13.1377 3.22776 13.4275 3.20529 13.7162C3.18283 14.0048 3.09251 14.2841 2.94169 14.5312C1.93849 16.1776 3.82249 18.0616 5.46889 17.0584C5.71602 16.9076 5.99527 16.8173 6.28391 16.7948C6.57255 16.7723 6.86242 16.8184 7.12991 16.9291C7.39739 17.0399 7.63494 17.2122 7.8232 17.4322C8.01147 17.6521 8.14512 17.9134 8.21329 18.1948C8.66809 20.068 11.3333 20.068 11.7869 18.1948C11.8553 17.9136 11.9891 17.6525 12.1774 17.4327C12.3657 17.2129 12.6032 17.0406 12.8706 16.9299C13.138 16.8192 13.4278 16.7731 13.7163 16.7954C14.0049 16.8177 14.2841 16.9079 14.5313 17.0584C16.1777 18.0616 18.0617 16.1776 17.0585 14.5312C16.9079 14.284 16.8178 14.0048 16.7955 13.7162C16.7732 13.4277 16.8192 13.1379 16.93 12.8705C17.0407 12.6031 17.213 12.3656 17.4328 12.1773C17.6525 11.989 17.9137 11.8552 18.1949 11.7868C20.0681 11.332 20.0681 8.6668 18.1949 8.2132C17.9135 8.14503 17.6522 8.01138 17.4323 7.82311C17.2123 7.63485 17.04 7.3973 16.9292 7.12982C16.8184 6.86233 16.7724 6.57246 16.7949 6.28382C16.8174 5.99518 16.9077 5.71593 17.0585 5.4688C18.0617 3.8224 16.1777 1.9384 14.5313 2.9416C14.2842 3.09242 14.0049 3.18274 13.7163 3.2052C13.4276 3.22767 13.1378 3.18165 12.8703 3.07089C12.6028 2.96013 12.3652 2.78776 12.177 2.56781C11.9887 2.34787 11.8551 2.08657 11.7869 1.8052L11.7881 1.804ZM10.0001 13.6C10.9549 13.6 11.8705 13.2207 12.5457 12.5456C13.2208 11.8705 13.6001 10.9548 13.6001 10C13.6001 9.04522 13.2208 8.12955 12.5457 7.45442C11.8705 6.77928 10.9549 6.4 10.0001 6.4C9.04531 6.4 8.12964 6.77928 7.45451 7.45442C6.77938 8.12955 6.40009 9.04522 6.40009 10C6.40009 10.9548 6.77938 11.8705 7.45451 12.5456C8.12964 13.2207 9.04531 13.6 10.0001 13.6Z" fill="#6B7280"/>
</svg>
